<svg id="Layer_1" data-name="Layer 1" xmlns="http://www.w3.org/2000/svg" viewBox="0 0 140 170"><defs><style>.cls-1{fill:#fff;}</style></defs><title>logo-gog-com-vertical</title><path class="cls-1" d="M131.12,0H8.88A8.86,8.86,0,0,0,0,8.84v114.9a8.86,8.86,0,0,0,8.88,8.84H131.12a8.86,8.86,0,0,0,8.88-8.84V8.84A8.86,8.86,0,0,0,131.12,0ZM41.72,85.11H25.43a2.3,2.3,0,0,0-2.3,2.31h0V99h0a2.3,2.3,0,0,0,2.3,2.3H41.72V109H21.39v0a6,6,0,0,1-6-6V83.37a6,6,0,0,1,6-6H41.72Zm5.87-21.47a6.08,6.08,0,0,1-6.09,6.07H15.36V61.89h22a2.34,2.34,0,0,0,2.34-2.34V33.71a2.34,2.34,0,0,0-2.34-2.34H25.55a2.33,2.33,0,0,0-2.33,2.34V45.47a2.33,2.33,0,0,0,2.33,2.34H35v7.82H21.45a6.08,6.08,0,0,1-6.09-6.07V29.62a6.08,6.08,0,0,1,6.09-6.07H41.5a6.08,6.08,0,0,1,6.09,6.07ZM79.68,103a6,6,0,0,1-6,6H53.92a6,6,0,0,1-6-6V83.37a6,6,0,0,1,6-6H73.68a6,6,0,0,1,6,6ZM80,55.63H60a6.08,6.08,0,0,1-6.09-6.07V29.62A6.08,6.08,0,0,1,60,23.55H80a6.09,6.09,0,0,1,6.09,6.07V49.56A6.09,6.09,0,0,1,80,55.63ZM124.62,109h-7.75V85.11h-5.44a2.31,2.31,0,0,0-2.31,2.31V109h-7.74V85.11H95.93a2.3,2.3,0,0,0-2.3,2.31V109H85.88V83.37a6,6,0,0,1,6-6h32.73Zm0-45.37a6.09,6.09,0,0,1-6.1,6.07H92.4V61.89h22a2.35,2.35,0,0,0,2.35-2.34V33.71a2.35,2.35,0,0,0-2.35-2.34H102.6a2.34,2.34,0,0,0-2.33,2.34V45.47a2.34,2.34,0,0,0,2.33,2.34h9.46v7.82H98.5a6.09,6.09,0,0,1-6.1-6.07V29.62a6.09,6.09,0,0,1,6.1-6.07h20a6.09,6.09,0,0,1,6.1,6.07ZM75.92,31.37H64.08a2.34,2.34,0,0,0-2.34,2.34V45.47a2.34,2.34,0,0,0,2.34,2.34H75.92a2.32,2.32,0,0,0,2.32-2.34V33.71A2.32,2.32,0,0,0,75.92,31.37ZM69.64,85.11H58a2.31,2.31,0,0,0-2.31,2.31V99A2.31,2.31,0,0,0,58,101.31l0,0v0H69.61v0s0,0,0,0A2.3,2.3,0,0,0,71.93,99V87.42A2.3,2.3,0,0,0,69.64,85.11ZM11.47,161.65a.51.51,0,0,0,.16.38.61.61,0,0,0,.43.15H15.2v4.44c-.35.18-.71.35-1,.5a9.28,9.28,0,0,1-1.09.36,8.8,8.8,0,0,1-1.18.23,9.13,9.13,0,0,1-1.32.09,9.15,9.15,0,0,1-3.23-.55,6.71,6.71,0,0,1-2.44-1.59,7.2,7.2,0,0,1-1.56-2.54,10.82,10.82,0,0,1,0-6.69,7,7,0,0,1,1.5-2.49,6.52,6.52,0,0,1,2.35-1.59,8.25,8.25,0,0,1,3.09-.55,10,10,0,0,1,2,.18,8.75,8.75,0,0,1,1.48.44,6.13,6.13,0,0,1,1.06.54q.43.28.78.48a.83.83,0,0,0,.64.13.79.79,0,0,0,.47-.36l.78-1.23a9.71,9.71,0,0,0-1.4-1.06,9.39,9.39,0,0,0-1.62-.8,10.55,10.55,0,0,0-1.9-.51,14.13,14.13,0,0,0-2.23-.17,11.71,11.71,0,0,0-4.29.74,9.35,9.35,0,0,0-3.26,2.1,9.17,9.17,0,0,0-2.06,3.25,11.5,11.5,0,0,0-.73,4.2,11.29,11.29,0,0,0,.75,4.17,9.23,9.23,0,0,0,2.13,3.24,9.7,9.7,0,0,0,3.35,2.11,12.27,12.27,0,0,0,4.4.75,12.62,12.62,0,0,0,3.79-.54,11.3,11.3,0,0,0,3.25-1.64v-7.71h-6.2Zm27.43-9.33a9.17,9.17,0,0,0-3.15-2.12,11.28,11.28,0,0,0-8.14,0,9,9,0,0,0-3.14,2.12,9.72,9.72,0,0,0-2,3.26,12.29,12.29,0,0,0,0,8.29,9.58,9.58,0,0,0,2,3.25,8.87,8.87,0,0,0,3.14,2.11,11.28,11.28,0,0,0,8.14,0,9,9,0,0,0,3.15-2.11,9.58,9.58,0,0,0,2-3.25,12.29,12.29,0,0,0,0-8.29A9.72,9.72,0,0,0,38.9,152.32Zm-.57,10.73a6.84,6.84,0,0,1-1.44,2.48,6.15,6.15,0,0,1-2.25,1.56,8.36,8.36,0,0,1-5.91,0,6.31,6.31,0,0,1-2.27-1.56A7.14,7.14,0,0,1,25,163.05a11.09,11.09,0,0,1,0-6.65,7.09,7.09,0,0,1,1.44-2.49,6.47,6.47,0,0,1,2.27-1.57,8.36,8.36,0,0,1,5.91,0,6.3,6.3,0,0,1,2.25,1.57,6.8,6.8,0,0,1,1.44,2.49,11.09,11.09,0,0,1,0,6.65Zm18.55-1.4A.51.51,0,0,0,57,162a.61.61,0,0,0,.43.15h3.15v4.44c-.36.18-.71.35-1.06.5a9.28,9.28,0,0,1-1.09.36,8.5,8.5,0,0,1-1.18.23,8.89,8.89,0,0,1-1.31.09,9.08,9.08,0,0,1-3.23-.55,6.75,6.75,0,0,1-2.45-1.59,7.17,7.17,0,0,1-1.55-2.54,10.63,10.63,0,0,1,0-6.69,6.84,6.84,0,0,1,1.49-2.49,6.48,6.48,0,0,1,2.36-1.59,8.2,8.2,0,0,1,3.08-.55,9.93,9.93,0,0,1,2,.18,8.75,8.75,0,0,1,1.48.44,6.13,6.13,0,0,1,1.06.54c.3.19.55.35.78.48a.83.83,0,0,0,.64.13.79.79,0,0,0,.47-.36L62.9,152a9.71,9.71,0,0,0-1.4-1.06,9,9,0,0,0-1.62-.8,10.55,10.55,0,0,0-1.9-.51,14.13,14.13,0,0,0-2.23-.17,11.71,11.71,0,0,0-4.29.74,9.35,9.35,0,0,0-3.26,2.1,9.17,9.17,0,0,0-2.06,3.25,11.5,11.5,0,0,0-.73,4.2,11.29,11.29,0,0,0,.75,4.17,9.12,9.12,0,0,0,2.14,3.24,9.52,9.52,0,0,0,3.35,2.11,12.19,12.19,0,0,0,4.4.75,12.6,12.6,0,0,0,3.78-.54,11.3,11.3,0,0,0,3.25-1.64v-7.71h-6.2Zm14,5.33a1.9,1.9,0,0,0-.57-.38,1.74,1.74,0,0,0-.69-.14,1.71,1.71,0,0,0-1.24.52,1.76,1.76,0,0,0-.37.56,1.92,1.92,0,0,0,0,1.39,1.72,1.72,0,0,0,.37.55,1.62,1.62,0,0,0,.55.37,1.81,1.81,0,0,0,.69.14,1.74,1.74,0,0,0,.69-.14,1.7,1.7,0,0,0,.57-.37,1.75,1.75,0,0,0,.38-.55,1.8,1.8,0,0,0,0-1.39A1.79,1.79,0,0,0,70.85,167Zm19.32-1.36a.73.73,0,0,0-.48.21,8.35,8.35,0,0,1-1,.82,5.52,5.52,0,0,1-1.14.57,6.74,6.74,0,0,1-1.34.33,11.5,11.5,0,0,1-1.63.11,7,7,0,0,1-2.76-.54,6.11,6.11,0,0,1-2.21-1.55,7.32,7.32,0,0,1-1.48-2.49,9.68,9.68,0,0,1-.55-3.35,9.86,9.86,0,0,1,.53-3.33,7,7,0,0,1,1.46-2.5,6.25,6.25,0,0,1,2.23-1.56,7.4,7.4,0,0,1,2.86-.54,7.61,7.61,0,0,1,2.19.27,7.52,7.52,0,0,1,1.48.61,8.21,8.21,0,0,1,1,.61,1.11,1.11,0,0,0,.62.27.64.64,0,0,0,.36-.09.8.8,0,0,0,.22-.23l.9-1.25a9.54,9.54,0,0,0-2.9-1.86,9.81,9.81,0,0,0-3.81-.69,10.43,10.43,0,0,0-4,.75,8.93,8.93,0,0,0-3.12,2.11,9.47,9.47,0,0,0-2,3.26,11.63,11.63,0,0,0-.72,4.17,12.16,12.16,0,0,0,.69,4.17,9.42,9.42,0,0,0,1.95,3.24,8.66,8.66,0,0,0,3,2.11,10.08,10.08,0,0,0,4,.75,10.41,10.41,0,0,0,4.28-.8,8.67,8.67,0,0,0,3-2.23l-1.08-1.17A.55.55,0,0,0,90.17,165.62Zm21.12-13.3a9.17,9.17,0,0,0-3.15-2.12,10.54,10.54,0,0,0-4.07-.76,10.42,10.42,0,0,0-4.06.76,9.07,9.07,0,0,0-3.15,2.12,9.72,9.72,0,0,0-2,3.26,12.29,12.29,0,0,0,0,8.29,9.58,9.58,0,0,0,2,3.25,8.91,8.91,0,0,0,3.15,2.11,10.42,10.42,0,0,0,4.06.76,10.54,10.54,0,0,0,4.07-.76,9,9,0,0,0,3.15-2.11,9.58,9.58,0,0,0,2-3.25,12.29,12.29,0,0,0,0-8.29A9.72,9.72,0,0,0,111.29,152.32Zm-.56,10.73a7.14,7.14,0,0,1-1.44,2.48,6.19,6.19,0,0,1-2.26,1.56,8.36,8.36,0,0,1-5.91,0,6.19,6.19,0,0,1-2.26-1.56,7,7,0,0,1-1.45-2.48,11.09,11.09,0,0,1,0-6.65,7,7,0,0,1,1.45-2.49,6.34,6.34,0,0,1,2.26-1.57,8.36,8.36,0,0,1,5.91,0,6.34,6.34,0,0,1,2.26,1.57,7.09,7.09,0,0,1,1.44,2.49,11.31,11.31,0,0,1,0,6.65Zm26.68-13.32a.77.77,0,0,0-.37.4l-6.86,12.36a6.64,6.64,0,0,0-.33.71q-.16.38-.3.75c-.1-.24-.21-.49-.31-.74a7.7,7.7,0,0,0-.33-.71l-7-12.37a.82.82,0,0,0-.38-.4,1.66,1.66,0,0,0-.56-.07h-2v20.11h2.4V155c0-.2,0-.42,0-.65s0-.47-.06-.72l7.08,12.62a1,1,0,0,0,1,.63h.4a1,1,0,0,0,1-.63l6.93-12.57c0,.23,0,.46,0,.68s0,.44,0,.64v14.77H140V149.66h-2A1.76,1.76,0,0,0,137.41,149.73Z"/></svg>