<?xml version="1.0" encoding="UTF-8" standalone="no"?>
<!-- Created with Inkscape (http://www.inkscape.org/) -->

<svg
   xmlns:dc="http://purl.org/dc/elements/1.1/"
   xmlns:cc="http://creativecommons.org/ns#"
   xmlns:rdf="http://www.w3.org/1999/02/22-rdf-syntax-ns#"
   xmlns:svg="http://www.w3.org/2000/svg"
   xmlns="http://www.w3.org/2000/svg"
   xmlns:sodipodi="http://sodipodi.sourceforge.net/DTD/sodipodi-0.dtd"
   xmlns:inkscape="http://www.inkscape.org/namespaces/inkscape"
   width="483"
   height="206"
   id="svg2"
   version="1.1"
   inkscape:version="0.48.2 r9819"
   sodipodi:docname="LOGO OF LOGO.svg">
  <metadata
     id="metadata3017">
    <rdf:RDF>
      <cc:Work
         rdf:about="">
        <dc:format>image/svg+xml</dc:format>
        <dc:type
           rdf:resource="http://purl.org/dc/dcmitype/StillImage" />
      </cc:Work>
    </rdf:RDF>
  </metadata>
  <defs
     id="defs3015" />
  <sodipodi:namedview
     pagecolor="#ffffff"
     bordercolor="#666666"
     borderopacity="1"
     objecttolerance="10"
     gridtolerance="10"
     guidetolerance="10"
     inkscape:pageopacity="0"
     inkscape:pageshadow="2"
     inkscape:window-width="1366"
     inkscape:window-height="706"
     id="namedview3013"
     showgrid="false"
     inkscape:zoom="2.4968944"
     inkscape:cx="241.5"
     inkscape:cy="103"
     inkscape:window-x="-8"
     inkscape:window-y="-8"
     inkscape:window-maximized="1"
     inkscape:current-layer="layer1" />
  <g
     inkscape:label="Layer 1"
     inkscape:groupmode="layer"
     id="layer1"
     transform="translate(101.87241,-561.62712)">
    <path
       id="path36291"
       d="m 381.12758,649.86512 c 0,38.30478 -26.05054,65.30111 -62.0525,65.30111 -36.00197,0 -62.05251,-26.99633 -62.05251,-65.30111 0,-35.79635 29.75149,-60.92166 62.05251,-60.92166 32.30102,0 62.0525,25.12531 62.0525,60.92166 m -93.75726,0.14393 c 0,20.41688 14.28976,35.32346 31.70476,35.32346 17.415,0 31.70476,-14.90658 31.70476,-35.32346 0,-16.32528 -14.28976,-31.23186 -31.70476,-31.23186 -17.415,0 -31.70476,14.90658 -31.70476,31.23186"
       style="fill:#0c9fb5;fill-rule:nonzero;stroke:none" />
    <path
       id="path36295"
       d="m -20.301537,668.23826 0,0.49346 c 0.246729,4.97571 3.721505,7.93647 9.663577,8.1832 l 6.9495515,0 56.9123025,0 c 4.770106,-10.34209 7.443011,-21.8767 7.443011,-34.00757 0,-44.78143 -36.228135,-81.11237 -80.968442,-81.27686 l 0,99.16476 0,7.44301"
       style="fill:#b7d52b;fill-rule:nonzero;stroke:none" />
    <path
       id="path36299"
       d="m -20.554435,715.13539 c -27.037456,-2.24113 -38.201972,-14.88602 -38.201972,-43.42441 l 0,-100.56289 c -25.639322,13.65237 -43.116003,40.66927 -43.116003,71.7572 0,44.86367 36.39262,81.25629 81.276853,81.25629 13.2411573,0 25.7421255,-3.16636 36.783277,-8.77946 l -30.286063,0 c -1.994398,0 -4.214965,0 -6.456092,-0.24673"
       style="fill:#edac09;fill-rule:nonzero;stroke:none" />
    <path
       id="path36303"
       d="m 53.213614,676.92108 -56.8917421,0 -6.9495519,0 c -5.962632,-0.24673 -9.437408,-3.22804 -9.684138,-8.1832 l 0,-0.49345 0,-7.44302 0,-99.16475 c -0.102804,0 -0.185047,0 -0.287851,0 -13.796299,0 -26.790726,3.43366 -38.16085,9.49909 l 0,100.58345 c 0,28.51783 11.164516,41.18329 38.201972,43.42442 2.241127,0.22617 4.461694,0.22617 6.456092,0.22617 l 30.286063,0 c 16.263595,-8.26545 29.360826,-21.83558 37.030006,-38.44871"
       style="fill:#0c9fb5;fill-rule:nonzero;stroke:none" />
    <path
       id="path36307"
       d="m 173.7945,649.96998 c 0,38.59263 -26.23559,65.81513 -62.5254,65.81513 -36.28982,0 -62.525405,-27.2225 -62.525405,-65.81513 0,-36.06365 29.998212,-61.37399 62.525405,-61.37399 32.54775,0 62.5254,25.31034 62.5254,61.37399 m -94.45633,0.16449 c 0,20.5608 14.392562,35.59075 31.93093,35.59075 17.53836,0 31.93092,-15.02995 31.93092,-35.59075 0,-16.44864 -14.39256,-31.49915 -31.93092,-31.49915 -17.538368,0 -31.93093,15.05051 -31.93093,31.49915"
       style="fill:#0c9fb5;fill-rule:nonzero;stroke:none" />
    <path
       id="path36311"
       d="m 276.89459,731.11114 0,-77.59647 c 0.0617,-1.37758 0.1028,-2.75515 0.1028,-4.15329 0,-1.21308 -0.0411,-2.42617 -0.1028,-3.63926 l 0,-0.32897 c -0.0206,0 -0.0206,-0.0206 -0.0206,-0.0206 -2.11776,-33.63748 -30.86177,-56.9123 -61.92914,-56.9123 -32.28046,0 -62.0525,25.1253 -62.0525,60.90109 0,38.32534 26.05053,65.32167 62.0525,65.32167 11.96639,0 22.82249,-2.98131 31.99261,-8.36824 l 0,23.31595 c -0.18505,4.05048 -3.02244,6.47665 -7.87479,6.6617 l -52.01883,0 c 6.25048,13.54957 16.92154,24.61128 30.18326,31.33466 l 29.91597,-0.18504 c 22.04118,-1.82992 31.12905,-12.13088 29.75148,-36.33094 m -61.9497,-46.26181 c -17.415,0 -31.6842,-14.90658 -31.6842,-35.32346 0,-16.32528 14.2692,-31.23186 31.6842,-31.23186 17.415,0 31.70476,14.90658 31.70476,31.23186 0,20.41688 -14.28976,35.32346 -31.70476,35.32346"
       style="fill:#0c9fb5;fill-rule:nonzero;stroke:none" />
    <path
       id="path36315"
       d="m -30.908856,636.90565 -0.02056,-0.20561 c -0.04112,-0.41122 0.102804,-0.86355 0.472898,-1.31589 0.349534,-0.41122 0.534581,-0.69907 0.534581,-1.0486 0,-0.3701 -0.226169,-0.63739 -0.719628,-0.63739 -0.267291,0 -0.575703,0.0822 -0.76075,0.22617 l -0.185047,-0.4729 c 0.24673,-0.2056 0.678506,-0.32897 1.089722,-0.32897 0.884115,0 1.27477,0.55514 1.27477,1.13085 0,0.51402 -0.287851,0.90467 -0.657945,1.33645 -0.328973,0.39065 -0.452338,0.71963 -0.431777,1.11028 l 0,0.20561 z m 0.287852,1.54206 c -0.267291,0 -0.452338,-0.20561 -0.452338,-0.4729 0,-0.28785 0.205608,-0.4729 0.452338,-0.4729 0.287851,0 0.452337,0.18505 0.452337,0.4729 0,0.26729 -0.164486,0.4729 -0.452337,0.4729 z"
       style="fill:#221e1f;fill-rule:nonzero;stroke:none" />
    <path
       id="path36319"
       d="m 352.01348,712.22398 0,2.81683 -0.39065,0 0,-2.81683 -1.00748,0 0,-0.37009 2.40561,0 0,0.37009 z"
       style="fill:#0c9fb5;fill-rule:nonzero;stroke:none" />
    <path
       id="path36323"
       d="m 357.21125,715.03876 -0.39065,0 0,-2.20001 c 0,-0.37009 -0.28785,-0.69907 -0.67851,-0.69907 -0.39065,0 -0.6785,0.32898 -0.6785,0.69907 l 0,2.20001 -0.39066,0 0,-2.20001 c 0,-0.37009 -0.28785,-0.69907 -0.69907,-0.69907 -0.37009,0 -0.6785,0.32898 -0.6785,0.69907 l 0,2.20001 -0.39066,0 0,-2.20001 c 0,-0.5757 0.4729,-1.06916 1.06916,-1.06916 0.39066,0 0.71963,0.20561 0.88412,0.49346 0.18505,-0.28785 0.49346,-0.49346 0.88411,-0.49346 0.59627,0 1.06916,0.49346 1.06916,1.06916 l 0,2.20001"
       style="fill:#0c9fb5;fill-rule:nonzero;stroke:none" />
    <path
       style="fill:#0c9fb5;fill-opacity:1"
       d=""
       id="path3019"
       inkscape:connector-curvature="0"
       transform="translate(-101.87241,561.62712)" />
    <path
       style="fill:#0c9fb5;fill-opacity:1"
       d=""
       id="path3021"
       inkscape:connector-curvature="0"
       transform="translate(-101.87241,561.62712)" />
    <path
       style="fill:#0c9fb5;fill-opacity:1"
       d="m 81.581343,153.34912 c -17.486677,-1.5185 -28.181634,-7.37759 -33.58263,-18.3978 -1.6883,-3.44482 -2.446061,-5.75051 -3.546876,-10.79233 -0.863491,-3.95485 -0.869267,-4.29455 -1.007827,-59.281563 L 43.30465,9.573511 46.823594,7.9397579 C 56.469979,3.4611937 66.310045,0.98296589 76.875498,0.37116392 l 4.505597,-0.26090061 0,54.28271569 0,54.282721 1.120706,2.14528 c 0.942581,1.8043 1.494999,2.33673 3.475607,3.34983 l 2.354902,1.20456 33.1683,0.11334 33.16829,0.11333 -1.43147,2.84253 c -6.68839,13.28138 -18.67403,25.69715 -32.2352,33.39204 l -3.14808,1.78628 -17.33541,-0.0673 c -9.534472,-0.037 -18.056302,-0.12992 -18.937397,-0.20644 z M 71.691807,74.914527 c -0.123308,-0.123309 -0.347251,0.09897 -0.49765,0.493946 -0.217344,0.570789 -0.171341,0.61679 0.224197,0.224198 0.273707,-0.271673 0.396761,-0.594835 0.273453,-0.718144 l 0,0 z m 1.272707,-2.292263 c 0.0034,-0.165206 -0.174091,-0.300373 -0.394365,-0.300373 -0.220273,0 -0.397737,0.405503 -0.394364,0.901119 0.005,0.728681 0.08042,0.786161 0.394364,0.300373 0.213528,-0.33041 0.390992,-0.735914 0.394365,-0.901119 z m -1.19536,-0.700871 c 0,-0.220274 -0.180224,-0.400497 -0.400497,-0.400497 -0.220274,0 -0.400498,0.180223 -0.400498,0.400497 0,0.220274 0.180224,0.400498 0.400498,0.400498 0.220273,0 0.400497,-0.180224 0.400497,-0.400498 z"
       id="path3023"
       inkscape:connector-curvature="0"
       transform="translate(-101.87241,561.62712)" />
    <path
       style="fill:#0c9fb5;fill-opacity:1"
       d="M 79.578856,153.15242 C 74.665597,152.6582 68.10585,151.14333 64.327334,149.63035 53.019186,145.10234 47.164728,137.44452 44.262823,123.38532 43.67121,120.51907 43.585856,114.35189 43.453076,64.877427 L 43.30465,9.573511 46.823594,7.9397579 C 56.424837,3.4821521 66.365395,0.9640419 76.675249,0.37783329 l 4.705846,-0.26756998 0.0088,54.22832769 c 0.0084,51.929169 0.04024,54.296249 0.750493,55.830319 0.910382,1.96632 2.531515,3.53057 4.647428,4.48435 1.495233,0.67399 3.810405,0.72967 34.740989,0.83545 l 33.139,0.11333 -1.55811,3.09065 c -6.55871,13.00982 -18.45746,25.33695 -31.91845,33.06756 l -3.24333,1.86264 -17.38229,-0.054 c -9.560258,-0.0297 -19.004302,-0.21711 -20.986764,-0.41652 z M 72.411619,72.830855 c -0.133082,-0.133082 -0.227739,0.103464 -0.210349,0.525653 0.01922,0.466559 0.114118,0.561457 0.241967,0.241968 0.115692,-0.289111 0.101464,-0.63454 -0.03162,-0.767621 l 10e-7,0 z"
       id="path3025"
       inkscape:connector-curvature="0"
       transform="translate(-101.87241,561.62712)" />
    <path
       style="fill:#0c9fb5;fill-opacity:1"
       d="M 79.779104,153.17327 C 57.020913,150.87903 45.911693,140.29144 43.751451,118.83729 43.484811,116.1892 43.333831,95.686239 43.333831,62.124855 l 0,-52.5649016 3.504353,-1.6269747 C 56.423969,3.4825639 66.371604,0.9636889 76.675249,0.37783329 l 4.705846,-0.26756998 0.0022,53.82783069 c 0.0015,36.325452 0.138835,54.319726 0.422345,55.340636 0.559933,2.01631 2.393062,4.03236 4.699367,5.16832 l 1.884761,0.92832 33.134569,0.12324 33.13456,0.12323 -1.44337,2.8805 c -6.42068,12.81355 -17.73493,24.72794 -30.97449,32.61744 l -4.20052,2.50311 -17.42861,-0.0532 c -9.585732,-0.0293 -18.96051,-0.20765 -20.832836,-0.3964 z"
       id="path3027"
       inkscape:connector-curvature="0"
       transform="translate(-101.87241,561.62712)" />
  </g>
</svg>
